<svg id="Capa_1" enable-background="new 0 0 512 512" height="512" viewBox="0 0 512 512" width="512" xmlns="http://www.w3.org/2000/svg" xmlns:xlink="http://www.w3.org/1999/xlink"><linearGradient id="SVGID_1_" gradientUnits="userSpaceOnUse" x1="0" x2="512" y1="251.228" y2="251.228"><stop offset="0" stop-color="#fff3ee" stop-opacity="0"/><stop offset=".2938" stop-color="#ffeade" stop-opacity=".373"/><stop offset=".7874" stop-color="#ffd6bb"/></linearGradient><g><g><path d="m16.074 298.108c18.727 64.003 72.707 194.564 163.922 182.845 91.486-11.755 55.759-129.725 139.508-145.894 36.867-7.118 61.857 56.689 98.806 54.704 47.588-2.557 71.81-49.663 85.108-89.264 28.197-83.968-14.029-226.352-112.859-251.012-86.244-21.519-96.332 83.855-171.322 53.248-42.149-17.203-37.938-68.576-89.272-78.942-155.298-31.359-138.81 189.15-113.891 274.315z" fill="url(#SVGID_1_)"/></g><g><path d="m357.11 212.872c-1.031 0-2.063-.318-2.938-.955l-3.242-2.355-3.242 2.355c-1.752 1.272-4.124 1.273-5.878 0-1.752-1.273-2.485-3.53-1.815-5.59l1.238-3.81-3.241-2.354c-1.753-1.273-2.486-3.53-1.816-5.59.669-2.06 2.589-3.455 4.755-3.455h4.007l1.238-3.811c.669-2.06 2.589-3.455 4.755-3.455s4.086 1.395 4.755 3.455l1.238 3.811h4.007c2.166 0 4.086 1.395 4.755 3.455.67 2.06-.063 4.317-1.816 5.59l-3.241 2.354 1.238 3.81c.67 2.06-.063 4.317-1.815 5.59-.879.636-1.91.955-2.942.955z" fill="#ff4d4d"/><path d="m148.775 92.424c-1.031 0-2.063-.318-2.939-.955l-3.241-2.355-3.242 2.355c-1.753 1.273-4.125 1.273-5.878 0-1.752-1.273-2.486-3.53-1.816-5.59l1.238-3.81-3.241-2.355c-1.752-1.273-2.486-3.53-1.816-5.59s2.589-3.455 4.755-3.455h4.006l1.238-3.811c.669-2.06 2.589-3.455 4.755-3.455 2.167 0 4.086 1.395 4.755 3.455l1.238 3.811h4.007c2.166 0 4.086 1.395 4.755 3.455s-.064 4.317-1.816 5.59l-3.242 2.354 1.238 3.81c.669 2.06-.064 4.317-1.816 5.59-.875.637-1.906.956-2.938.956z" fill="#4d4dff"/><path d="m373.701 165.17c-1.279 0-2.56-.488-3.535-1.464l-4.965-4.964-4.965 4.964c-1.951 1.952-5.119 1.952-7.07 0-1.953-1.953-1.953-5.119 0-7.071l8.5-8.5c1.951-1.952 5.119-1.952 7.07 0l8.5 8.5c1.953 1.953 1.953 5.119 0 7.071-.975.976-2.256 1.464-3.535 1.464z" fill="#ff9d33"/><path d="m226.523 344.446c-1.28 0-2.559-.488-3.536-1.464l-4.964-4.964-4.964 4.964c-1.953 1.952-5.118 1.952-7.071 0-1.953-1.953-1.953-5.119 0-7.071l8.5-8.5c1.953-1.952 5.118-1.952 7.071 0l8.5 8.5c1.953 1.953 1.953 5.119 0 7.071-.977.976-2.256 1.464-3.536 1.464z" fill="#ff9d33"/><path d="m369.43 442.083c-1.279 0-2.56-.488-3.535-1.464l-4.965-4.964-4.965 4.964c-1.951 1.952-5.119 1.952-7.07 0-1.953-1.953-1.953-5.119 0-7.071l8.5-8.5c1.951-1.952 5.119-1.952 7.07 0l8.5 8.5c1.953 1.953 1.953 5.119 0 7.071-.976.976-2.256 1.464-3.535 1.464z" fill="#4d4dff"/><g><path d="m470.675 462.534-131.43-131.43 3.648-3.648c5.501-5.501 5.501-14.419 0-19.919-5.501-5.501-14.419-5.501-19.919 0l-1.486 1.486-23.73-36.887 2.124-2.124c5.501-5.501 5.501-14.419 0-19.92s-14.419-5.501-19.92 0l-1.917 1.917-26.411-16.991 43.885-43.885c3.905-3.905 3.905-10.237 0-14.142l-8.165-8.165 16.559-16.559 8.165 8.165c3.905 3.905 10.237 3.905 14.142 0l11.783-11.783c3.905-3.905 3.905-10.237 0-14.142l-79.542-79.542c-3.905-3.905-10.237-3.905-14.142 0l-11.783 11.783c-3.905 3.905-3.905 10.237 0 14.142l8.165 8.165-16.559 16.559-8.165-8.165c-3.905-3.905-10.237-3.905-14.142 0l-120.022 120.021c-3.905 3.905-3.905 10.237 0 14.142l8.165 8.165-16.559 16.559-8.165-8.165c-3.905-3.905-10.237-3.905-14.142 0l-11.783 11.783c-3.905 3.905-3.905 10.237 0 14.142l79.542 79.542c3.905 3.905 10.237 3.905 14.142 0l11.783-11.783c3.905-3.905 3.905-10.237 0-14.142l-8.165-8.165 16.559-16.559 8.165 8.165c3.905 3.905 10.237 3.905 14.142 0l43.885-43.885 16.991 26.411-1.917 1.917c-5.501 5.501-5.501 14.419 0 19.92 5.5 5.501 14.419 5.501 19.919 0l2.124-2.124 36.887 23.73-1.486 1.486c-5.5 5.501-5.5 14.419 0 19.92 5.501 5.501 14.419 5.501 19.92 0l3.648-3.648 131.43 131.43c6.566 6.566 17.212 6.566 23.778 0 6.565-6.565 6.565-17.211-.001-23.777z" fill="#00c" opacity=".1"/><g><g fill="#ff4d4d"><path d="m63.616 134.092h250.097v89.396h-250.097z" transform="matrix(.707 -.707 .707 .707 -71.165 185.773)"/><path d="m325.148 289.202-29.657-46.101-42.515 42.515 46.101 29.658z"/><path d="m208.236 224.432 29.658 46.102 42.514-42.515-46.101-29.658z"/></g><g><path d="m470.675 460.8c-6.566 6.566-17.212 6.566-23.778 0l-139.686-139.686 23.778-23.778 139.686 139.686c6.566 6.566 6.566 17.212 0 23.778z" fill="#ff8b00"/><g fill="#ffc599"><path d="m312.883 304.836h33.627v29.972h-33.627z" transform="matrix(.707 -.707 .707 .707 -129.582 326.806)"/><path d="m470.675 437.022-90.023-90.023c-7.957 7.895-15.913 15.791-23.834 23.722l90.08 90.08c6.566 6.566 17.212 6.566 23.778 0 6.565-6.567 6.565-17.213-.001-23.779z"/></g></g><path d="m342.893 301.944-31.074 31.074c-5.501 5.501-14.419 5.501-19.92 0-5.501-5.501-5.501-14.419 0-19.92l31.074-31.074c5.501-5.501 14.419-5.501 19.92 0 5.501 5.501 5.501 14.419 0 19.92z" fill="#ffab66"/><path d="m299.881 244.5-45.506 45.506c-5.501 5.501-14.419 5.501-19.92 0-5.501-5.501-5.501-14.419 0-19.92l45.506-45.506c5.501-5.501 14.419-5.501 19.92 0 5.5 5.501 5.5 14.419 0 19.92z" fill="#ff9d33"/><g><path d="m295.517 165.622-120.02 120.02c-3.905 3.905-10.237 3.905-14.142 0l-79.542-79.542c-3.905-3.905-3.905-10.237 0-14.142l120.02-120.02c3.905-3.905 10.237-3.905 14.142 0l79.542 79.542c3.905 3.905 3.905 10.237 0 14.142z" fill="#ffab66"/><path d="m283.685 177.454-96.356 96.356-20.826-20.826c-7.81-7.81-7.81-20.474 0-28.284l68.072-68.072c7.81-7.81 20.474-7.81 28.284 0z" fill="#ff8b00"/></g><g><g><path d="m338.001 123.138-11.783 11.783c-3.905 3.905-10.237 3.905-14.142 0l-79.542-79.541c-3.905-3.905-3.905-10.237 0-14.142l11.783-11.783c3.905-3.905 10.237-3.905 14.142 0l79.542 79.542c3.905 3.905 3.905 10.236 0 14.141z" fill="#ff9d33"/><path d="m271.482 94.328 40.594 40.594c3.905 3.905 10.237 3.905 14.142 0l11.783-11.783c3.905-3.905 3.905-10.237 0-14.142l-40.594-40.594z" fill="#ffc599"/><path d="m286.326 109.171 25.75 25.75c3.905 3.905 10.237 3.905 14.142 0l11.783-11.783c3.905-3.905 3.905-10.237 0-14.142l-25.75-25.75z" fill="#ff8b00"/></g><g><path d="m144.796 316.343-11.783 11.783c-3.905 3.905-10.237 3.905-14.142 0l-79.542-79.542c-3.905-3.905-3.905-10.237 0-14.142l11.783-11.783c3.905-3.905 10.237-3.905 14.142 0l79.542 79.542c3.905 3.905 3.905 10.237 0 14.142z" fill="#ff9d33"/><path d="m78.278 287.532 40.594 40.594c3.905 3.905 10.237 3.905 14.142 0l11.783-11.783c3.905-3.905 3.905-10.237 0-14.142l-40.594-40.594z" fill="#ffc599"/><path d="m93.121 302.376 25.75 25.75c3.905 3.905 10.237 3.905 14.142 0l11.783-11.783c3.905-3.905 3.905-10.237 0-14.142l-25.75-25.75z" fill="#ff8b00"/><path d="m474.21 433.487-127.895-127.895.112-.112c3.605-3.604 5.591-8.397 5.591-13.496 0-5.098-1.985-9.891-5.59-13.495-3.604-3.605-8.397-5.59-13.496-5.59-3.734 0-7.299 1.075-10.358 3.061l-18.461-28.696c6.714-7.484 6.496-19.025-.698-26.219-3.604-3.605-8.397-5.59-13.495-5.59-4.649 0-9.034 1.667-12.506 4.693l-17.861-11.491 39.499-39.5c5.849-5.849 5.849-15.365 0-21.213l-4.629-4.629 9.488-9.488 4.63 4.63c2.833 2.833 6.6 4.393 10.606 4.393s7.772-1.56 10.605-4.393l11.783-11.783c2.834-2.833 4.394-6.6 4.394-10.607s-1.561-7.773-4.394-10.606l-79.542-79.542c-2.833-2.833-6.6-4.393-10.606-4.393-4.007 0-7.774 1.56-10.607 4.393l-11.783 11.783c-5.849 5.849-5.849 15.365 0 21.214l4.629 4.629-9.487 9.487-4.629-4.629c-5.849-5.848-15.365-5.849-21.213 0l-18.825 18.824c-1.953 1.953-1.953 5.119 0 7.071 1.954 1.952 5.119 1.953 7.071 0l18.825-18.824c1.949-1.949 5.121-1.95 7.071 0l79.542 79.542c1.949 1.949 1.949 5.122 0 7.071l-120.02 120.02c-.944.944-2.2 1.464-3.536 1.464-1.335 0-2.591-.52-3.535-1.464l-79.542-79.542c-1.95-1.949-1.95-5.122 0-7.071l77.279-77.278c1.953-1.953 1.953-5.119 0-7.071-1.952-1.951-5.117-1.952-7.071 0l-77.279 77.278c-5.848 5.849-5.848 15.365 0 21.213l4.629 4.629-9.487 9.487-4.629-4.629c-2.833-2.833-6.6-4.393-10.606-4.393-4.007 0-7.774 1.56-10.607 4.393l-11.783 11.783c-5.848 5.849-5.848 15.365 0 21.213l79.542 79.542c2.925 2.924 6.765 4.386 10.607 4.386 3.84 0 7.683-1.462 10.606-4.386l11.783-11.783c2.833-2.833 4.393-6.6 4.393-10.607 0-4.006-1.56-7.773-4.393-10.606l-4.629-4.629 9.488-9.488 4.629 4.629c2.833 2.833 6.6 4.394 10.606 4.394s7.773-1.56 10.607-4.393l39.499-39.5 11.492 17.863c-6.513 7.488-6.227 18.877.896 26 3.721 3.72 8.608 5.581 13.495 5.581 4.562 0 9.111-1.642 12.723-4.883l28.697 18.461c-1.987 3.06-3.062 6.625-3.062 10.358 0 5.098 1.985 9.891 5.591 13.496 3.604 3.604 8.397 5.59 13.495 5.59s9.891-1.985 13.494-5.59l.113-.113 6.571 6.571c.976.976 2.256 1.464 3.535 1.464s2.56-.488 3.535-1.464c1.953-1.953 1.953-5.119 0-7.071l-6.571-6.571 16.707-16.707 127.897 127.895c2.231 2.231 3.46 5.198 3.46 8.353s-1.229 6.122-3.461 8.354c-2.23 2.231-5.197 3.459-8.353 3.459s-6.122-1.229-8.354-3.46l-97.407-97.407c-1.951-1.952-5.119-1.952-7.07 0-1.953 1.953-1.953 5.119 0 7.071l97.406 97.407c4.12 4.12 9.598 6.389 15.425 6.389s11.305-2.269 15.424-6.389c4.12-4.12 6.39-9.598 6.39-15.424s-2.27-11.304-6.39-15.424zm-238.14-388.714 11.783-11.783c.975-.975 2.255-1.462 3.536-1.462 1.28 0 2.561.488 3.535 1.462l79.542 79.542c.944.944 1.464 2.2 1.464 3.535 0 1.336-.52 2.591-1.464 3.536l-11.783 11.783c-1.95 1.95-5.123 1.949-7.071 0l-79.542-79.542c-1.95-1.949-1.95-5.121 0-7.071zm4.629 25.843 56.142 56.141-9.488 9.488-56.141-56.141zm-99.438 242.192-11.783 11.783c-1.949 1.95-5.122 1.949-7.071 0l-79.542-79.542c-1.95-1.949-1.95-5.122 0-7.071l11.783-11.783c.975-.975 2.255-1.462 3.536-1.462 1.28 0 2.561.488 3.535 1.462l79.542 79.542c1.949 1.949 1.949 5.121 0 7.071zm-4.629-25.843-56.142-56.141 9.487-9.487 56.141 56.141zm156.069 18.261-28.281-18.194 32.488-32.488 18.194 28.282zm-40.383-89.333 17.805 11.455-32.901 32.9-11.454-17.805zm-14.327 70.578c-3.542-3.543-3.542-9.307 0-12.849l45.505-45.505c1.717-1.716 3.998-2.661 6.425-2.661s4.708.945 6.424 2.661c3.543 3.542 3.543 9.307 0 12.849h.001l-45.506 45.504c-3.543 3.543-9.307 3.542-12.849.001zm63.868 45.673c-2.427 0-4.708-.945-6.425-2.661-1.716-1.716-2.661-3.998-2.661-6.424s.945-4.708 2.661-6.424l31.075-31.075c1.715-1.716 3.996-2.661 6.423-2.661 2.428 0 4.709.945 6.425 2.661s2.661 3.998 2.661 6.424c0 2.427-.945 4.708-2.661 6.424l-31.075 31.075c-1.715 1.716-3.996 2.661-6.423 2.661z" fill="#00c"/></g></g></g></g></g></g></svg>